<?xml version="1.0" standalone="no"?>
<!DOCTYPE svg PUBLIC "-//W3C//DTD SVG 20010904//EN"
 "http://www.w3.org/TR/2001/REC-SVG-20010904/DTD/svg10.dtd">
<svg version="1.0" xmlns="http://www.w3.org/2000/svg"
 width="568.000000pt" height="600.000000pt" viewBox="0 0 568.000000 600.000000"
 preserveAspectRatio="xMidYMid meet">
<g transform="translate(0.000000,600.000000) scale(0.050000,-0.050000)"
fill="#000000" stroke="none">
<path d="M5280 11407 c-193 -22 -658 -91 -720 -107 -38 -11 -151 -38 -249 -62
-98 -23 -193 -50 -210 -58 -17 -9 -107 -40 -201 -70 -93 -30 -237 -86 -320
-124 -464 -212 -486 -225 -875 -480 -124 -81 -225 -155 -225 -164 0 -8 -21
-25 -48 -37 -58 -27 -310 -241 -509 -433 -204 -197 -652 -732 -613 -732 7 0
-2 -14 -19 -32 -46 -46 -243 -348 -273 -419 -14 -32 -36 -72 -49 -89 -13 -16
-84 -159 -158 -316 -494 -1054 -626 -2209 -389 -3414 55 -282 121 -501 253
-850 101 -266 335 -743 382 -780 7 -5 15 -22 18 -36 4 -15 22 -51 42 -80 20
-30 76 -112 124 -184 327 -489 925 -1106 1319 -1361 50 -32 99 -65 110 -74
300 -242 1175 -643 1650 -756 407 -96 530 -118 906 -159 592 -65 1575 51 2134
251 39 14 133 48 210 75 122 43 294 117 500 214 57 27 326 177 466 261 398
236 1028 803 1344 1209 55 72 109 140 119 153 62 77 244 354 293 447 32 61 65
113 73 117 8 3 10 15 4 25 -6 10 -3 18 7 18 10 0 59 83 110 185 121 245 215
455 202 455 -5 0 1 19 13 42 30 56 135 360 147 425 5 29 14 61 21 71 17 27
131 577 142 682 5 50 19 162 31 250 69 506 -12 1383 -190 2050 -26 98 -147
437 -218 609 -293 716 -947 1594 -1527 2053 -199 158 -309 238 -325 238 -10 0
-22 7 -25 17 -4 9 -83 66 -177 127 -577 378 -1301 661 -1980 774 -71 12 -188
31 -260 43 -128 22 -924 41 -1060 26z m470 -2896 c33 -5 119 -14 190 -21 654
-63 1267 -175 1820 -334 116 -33 219 -63 230 -65 11 -3 34 -10 50 -17 17 -7
102 -36 190 -65 153 -51 200 -70 415 -166 52 -24 103 -43 114 -43 19 0 162
-66 221 -102 17 -10 73 -40 125 -66 470 -239 611 -486 465 -812 -149 -331
-419 -374 -877 -139 -430 220 -917 418 -1153 467 -27 6 -113 29 -190 52 -182
53 -888 196 -1030 208 -60 5 -222 23 -360 40 -592 71 -1458 72 -2120 2 -239
-25 -332 -37 -473 -61 -89 -16 -220 -43 -290 -60 -70 -18 -166 -40 -214 -50
-47 -10 -132 -32 -188 -49 -541 -160 -947 415 -577 820 68 75 274 183 382 200
17 3 116 25 220 50 230 55 278 64 610 116 336 53 350 55 1030 112 110 10 1326
-6 1410 -17z m-10 -1880 c660 -81 1078 -171 1580 -342 342 -116 508 -177 520
-189 6 -6 82 -41 170 -79 174 -75 576 -294 694 -378 111 -80 161 -196 150
-349 -13 -178 -18 -190 -114 -286 -171 -171 -344 -172 -640 -5 -104 60 -226
125 -270 145 -44 21 -152 72 -240 113 -173 82 -390 163 -390 145 0 -6 -11 -2
-25 9 -23 18 -303 112 -485 162 -121 34 -527 119 -640 134 -55 8 -118 18 -140
24 -664 158 -1971 99 -2860 -129 -231 -60 -649 -38 -581 29 5 5 -2 21 -15 35
-198 209 -168 510 66 661 176 114 953 277 1600 336 229 21 1362 -4 1620 -36z
m-312 -1711 c883 -73 1641 -293 2371 -687 384 -207 471 -347 363 -585 -97
-213 -300 -244 -580 -89 -400 222 -691 343 -1182 490 -125 38 -276 72 -295 67
-8 -2 -46 6 -85 19 -235 79 -1350 131 -1790 84 -88 -9 -214 -22 -280 -28 -147
-13 -422 -59 -742 -123 -133 -26 -280 -48 -327 -48 -316 0 -450 402 -201 603
249 200 1840 372 2748 297z"/>
</g>
</svg>
